<?xml version="1.0" standalone="no"?>
<!DOCTYPE svg PUBLIC "-//W3C//DTD SVG 20010904//EN"
 "http://www.w3.org/TR/2001/REC-SVG-20010904/DTD/svg10.dtd">
<svg version="1.0" xmlns="http://www.w3.org/2000/svg"
 width="1500.000000pt" height="1500.000000pt" viewBox="0 0 1500.000000 1500.000000"
 preserveAspectRatio="xMidYMid meet">
<metadata>
Created by potrace 1.11, written by Peter Selinger 2001-2013
</metadata>
<g transform="translate(0.000000,1500.000000) scale(0.100000,-0.100000)"
fill="#000000" stroke="none">
<path d="M8283 10638 c-143 -21 -276 -109 -377 -250 -102 -143 -194 -392 -220
-593 -4 -35 -13 -35 -70 4 -259 178 -639 337 -934 391 -31 5 -68 12 -82 15
-14 3 -45 8 -70 11 -25 3 -56 7 -69 9 -111 18 -461 25 -616 11 -142 -12 -330
-39 -435 -62 -14 -3 -36 -7 -50 -10 -145 -29 -402 -106 -570 -171 -172 -65
-250 -102 -335 -158 -80 -51 -138 -89 -160 -101 -11 -6 -56 -33 -100 -59 -126
-75 -396 -209 -516 -255 -30 -11 -63 -25 -74 -30 -99 -46 -453 -140 -583 -155
-26 -3 -78 -10 -117 -15 -67 -8 -342 -6 -416 3 -199 26 -351 69 -519 149 -168
81 -327 192 -428 302 -23 25 -44 46 -46 46 -7 0 59 -212 83 -265 145 -321 310
-510 559 -638 78 -40 235 -95 317 -111 17 -4 41 -8 54 -11 55 -10 172 -19 261
-19 94 0 268 12 279 18 3 2 29 7 56 11 111 14 338 73 441 113 27 11 112 51
189 89 358 177 676 300 1065 413 205 60 511 129 637 145 26 4 93 14 148 22
140 23 431 22 550 -1 11 -2 40 -7 65 -11 53 -9 68 -11 135 -25 128 -26 147
-30 154 -34 4 -3 21 -7 37 -10 104 -19 485 -145 736 -245 305 -121 742 -326
1013 -476 89 -49 130 -67 160 -67 35 -1 158 4 455 17 41 2 149 6 240 9 202 7
356 16 393 22 15 2 42 6 60 9 339 55 657 184 939 382 57 40 117 84 135 99 l32
26 -4 -59 c-3 -53 -9 -116 -20 -243 -2 -25 -7 -81 -10 -125 -10 -127 -14 -155
-28 -175 -74 -106 -392 -374 -854 -721 l-142 -107 99 -143 c98 -142 100 -145
101 -204 0 -33 2 -71 4 -85 1 -14 6 -74 9 -135 4 -60 9 -128 11 -150 2 -22 6
-96 10 -165 3 -69 8 -132 11 -141 4 -13 21 -17 92 -19 48 -1 110 -4 137 -5 58
-3 292 -14 415 -20 116 -5 304 -14 425 -20 55 -3 156 -8 225 -11 69 -3 159 -7
200 -9 281 -13 345 -16 430 -20 161 -6 362 -16 432 -20 36 -2 131 -7 210 -10
266 -10 302 -14 310 -30 5 -8 42 -60 83 -115 l75 -100 271 0 271 0 71 37 c137
72 209 170 192 262 -8 41 -72 109 -132 140 -88 44 -356 124 -488 144 -16 3
-57 10 -90 16 -33 6 -78 13 -100 16 -22 2 -49 7 -61 9 -12 2 -45 7 -75 11 -30
3 -65 8 -79 10 -14 2 -56 7 -95 11 -38 3 -78 8 -89 10 -10 2 -53 6 -95 9 -42
3 -90 8 -106 10 -17 2 -67 7 -110 10 -44 3 -102 7 -130 10 -27 3 -93 7 -145
10 -52 3 -135 8 -185 11 -161 10 -541 24 -875 33 -45 1 -46 2 -46 34 -1 54
-15 436 -19 534 -5 96 -3 91 -140 416 l-16 39 43 -31 c24 -17 78 -57 120 -91
43 -33 81 -60 85 -60 5 1 70 83 145 183 76 100 250 328 386 507 l248 325 712
5 711 5 41 40 c52 50 102 154 128 265 11 47 20 92 21 100 0 8 3 54 7 102 l6
87 -168 -4 c-93 -2 -207 -5 -253 -6 l-84 -1 -154 158 c-85 88 -237 243 -339
346 -206 209 -174 191 -359 203 -49 3 -104 8 -122 10 -18 3 -67 7 -110 10
-194 13 -184 11 -380 106 -102 50 -189 87 -193 82 -4 -4 -34 -79 -65 -165
l-58 -157 -96 -93 c-354 -340 -700 -554 -1081 -668 -185 -55 -326 -75 -525
-74 -201 0 -305 17 -494 81 -365 121 -564 250 -652 420 -45 89 -50 191 -13
298 45 133 180 298 355 436 52 41 75 65 67 70 -37 20 -199 30 -285 17z"/>
<path d="M5549 9116 c-2 -2 -40 -7 -84 -10 -88 -7 -113 -10 -230 -31 -109 -20
-114 -21 -165 -35 -25 -7 -53 -14 -63 -16 -32 -6 -201 -65 -285 -100 -189 -78
-410 -213 -547 -334 -57 -50 -185 -183 -181 -187 2 -2 28 6 57 18 253 101 612
198 829 225 25 3 51 7 59 10 20 6 203 18 291 18 155 0 251 -12 294 -39 50 -30
114 -88 149 -135 126 -170 -89 -316 -580 -394 -51 -8 -100 -19 -110 -24 -32
-17 -163 -42 -251 -49 -145 -11 -468 -5 -614 12 -18 2 -69 6 -112 10 -43 4
-86 8 -95 10 -9 1 -47 6 -85 10 -38 4 -79 9 -90 10 -22 4 -227 33 -286 41 -19
3 -57 9 -85 14 -27 5 -68 12 -90 15 -55 8 -234 39 -390 69 -71 13 -170 27
-219 31 -50 4 -99 9 -109 11 -17 3 -81 8 -247 19 -398 27 -819 24 -1090 -9
-30 -4 -62 -9 -70 -11 -8 -2 -35 -7 -60 -10 -182 -26 -398 -103 -487 -174 -37
-29 -41 -40 -15 -39 34 1 353 -13 371 -17 11 -2 70 -6 132 -10 61 -4 119 -8
128 -10 9 -1 54 -6 101 -10 47 -4 92 -8 100 -10 8 -2 49 -6 90 -10 41 -4 82
-9 91 -10 9 -2 40 -6 70 -10 30 -3 65 -8 79 -10 14 -2 45 -7 70 -10 25 -3 56
-8 70 -10 14 -3 41 -7 60 -10 19 -3 62 -10 95 -16 87 -15 96 -16 140 -24 45
-7 71 -12 280 -55 301 -63 741 -180 970 -260 92 -32 341 -93 470 -115 17 -3
41 -7 55 -10 14 -3 45 -8 70 -11 25 -3 52 -7 60 -9 8 -2 40 -7 70 -10 30 -3
75 -8 100 -10 183 -19 420 -23 600 -10 145 10 148 11 210 20 30 4 62 9 70 10
87 11 279 56 395 92 190 58 388 147 528 237 68 44 68 43 14 -79 -94 -208 -350
-446 -661 -616 l-71 -39 -712 0 c-392 0 -713 -3 -713 -6 0 -11 24 -50 53 -88
75 -95 294 -192 502 -221 22 -4 47 -8 55 -10 8 -2 38 -7 65 -10 28 -3 64 -8
80 -10 212 -27 897 -20 946 10 3 2 21 7 40 10 41 7 248 69 333 100 224 82 654
285 829 393 37 23 69 42 72 42 2 0 49 29 104 64 109 71 85 65 336 81 44 3 107
7 140 10 33 2 101 7 150 10 50 3 117 8 150 10 33 3 96 7 140 10 80 5 178 12
290 20 81 6 232 17 275 19 70 4 264 -79 358 -153 185 -146 206 -369 58 -594
l-19 -28 29 13 c63 27 224 141 284 202 227 228 231 487 13 773 -60 80 -203
219 -225 220 -33 1 -277 15 -308 18 -19 2 -93 7 -165 11 -71 3 -146 8 -165 9
-117 8 -247 16 -330 20 -52 3 -120 7 -150 10 -30 3 -100 7 -154 10 l-100 6
-112 117 c-61 64 -147 154 -190 198 -142 147 -142 141 -9 75 196 -96 321 -149
490 -206 125 -41 317 -90 395 -100 29 -4 62 -9 74 -12 12 -3 104 -7 206 -8
180 -3 221 1 385 39 33 7 149 52 195 76 52 26 154 100 147 106 -2 2 -28 6 -58
9 -30 2 -88 7 -129 10 -41 4 -115 13 -165 20 -49 8 -108 17 -130 21 -34 5
-108 20 -200 40 -11 2 -32 6 -48 9 -128 24 -571 155 -807 239 -69 24 -145 51
-170 60 -25 9 -54 20 -65 25 -11 5 -58 24 -105 41 -150 56 -429 175 -630 268
-46 21 -99 37 -160 47 -19 3 -42 8 -50 10 -8 2 -28 7 -45 10 -16 2 -39 7 -50
9 -11 2 -42 7 -68 10 -27 4 -57 9 -67 11 -11 2 -50 7 -87 10 -37 4 -77 9 -88
12 -24 6 -511 14 -516 9z"/>
<path d="M6346 6294 c-15 -14 -16 -109 -14 -932 l3 -916 26 -15 c33 -18 73 -8
86 21 5 13 9 70 8 128 -1 58 0 109 2 113 3 4 18 -12 35 -35 74 -103 192 -190
310 -229 105 -34 271 -34 376 0 155 51 296 172 372 320 107 211 98 514 -23
711 -82 135 -192 225 -339 278 -60 21 -93 26 -185 28 -158 3 -250 -27 -374
-122 -55 -42 -159 -157 -159 -175 0 -5 -3 -9 -7 -9 -5 0 -8 184 -8 409 0 329
-3 412 -14 425 -17 21 -75 21 -95 0z m749 -658 c51 -11 168 -73 210 -113 81
-76 139 -171 161 -263 4 -19 10 -42 12 -50 2 -8 5 -64 6 -123 5 -174 -45 -315
-148 -418 -100 -101 -222 -148 -371 -144 -351 10 -594 368 -492 723 82 281
343 444 622 388z"/>
<path d="M11709 6293 c-11 -13 -14 -92 -14 -420 l0 -404 -24 28 c-61 73 -100
112 -146 149 -176 141 -425 163 -643 57 -111 -54 -223 -168 -280 -283 -166
-338 -60 -753 238 -930 177 -105 405 -119 572 -34 94 48 176 116 235 197 19
26 38 47 41 47 4 0 7 -57 8 -126 0 -112 3 -128 19 -140 26 -20 69 -17 88 4 16
17 17 96 17 929 0 869 -1 911 -18 926 -24 22 -76 22 -93 0z m-407 -664 c190
-53 337 -207 383 -401 20 -88 14 -244 -13 -329 -45 -138 -146 -255 -277 -320
-95 -47 -160 -60 -259 -54 -223 13 -413 187 -461 421 -12 56 -14 209 -4 259 6
28 12 61 15 75 3 14 21 58 41 97 103 210 345 316 575 252z"/>
<path d="M8042 6237 c-33 -35 -31 -119 3 -152 39 -40 106 -26 123 24 15 44 6
110 -19 132 -31 26 -80 25 -107 -4z"/>
<path d="M9358 6213 c-16 -16 -28 -32 -28 -35 0 -3 -20 -48 -44 -100 -24 -51
-53 -115 -66 -143 -12 -27 -38 -84 -57 -125 -20 -41 -47 -100 -60 -130 -14
-30 -47 -102 -74 -158 -27 -57 -49 -105 -49 -107 0 -1 -20 -45 -44 -96 -24
-52 -83 -179 -131 -284 -48 -104 -124 -266 -167 -360 -44 -93 -80 -180 -80
-193 -1 -53 70 -83 105 -44 14 15 86 168 207 440 l24 52 526 0 527 0 73 -157
c40 -87 82 -180 94 -208 61 -139 89 -165 145 -133 39 22 33 73 -21 188 -25 52
-70 149 -101 215 -30 66 -70 154 -90 195 -19 41 -57 125 -85 185 -28 61 -69
151 -92 200 -23 50 -65 140 -92 200 -167 366 -268 578 -283 599 -9 12 -31 20
-62 23 -43 4 -51 2 -75 -24z m162 -343 c51 -113 126 -279 167 -370 41 -91 84
-185 95 -210 11 -25 40 -87 64 -139 24 -51 44 -95 44 -97 0 -2 -211 -4 -469
-4 l-470 0 33 73 c18 39 50 107 70 150 20 42 36 79 36 82 0 2 17 41 39 87 63
135 95 205 169 368 112 249 123 272 126 268 2 -1 45 -95 96 -208z"/>
<path d="M2510 6210 c-20 -20 -20 -33 -20 -889 l0 -870 22 -15 c28 -20 58 -20
84 -2 18 14 19 34 20 770 0 416 3 758 6 761 2 3 24 -23 48 -58 55 -80 201
-293 220 -322 14 -21 122 -179 220 -323 22 -31 43 -62 47 -67 5 -6 35 -50 68
-99 33 -48 67 -92 76 -97 39 -21 73 8 161 139 81 120 136 200 323 472 43 63
119 173 167 244 l88 129 0 -761 c0 -749 0 -762 20 -782 25 -25 72 -26 94 -1
16 17 17 85 17 887 l1 868 -22 18 c-34 27 -82 23 -112 -9 -14 -16 -104 -145
-200 -288 -97 -143 -231 -341 -298 -440 -67 -99 -140 -208 -163 -242 -23 -35
-44 -63 -47 -63 -3 0 -60 83 -127 183 -269 403 -555 824 -577 850 -30 34 -86
37 -116 7z"/>
<path d="M5106 5750 c-160 -43 -311 -151 -395 -285 -230 -364 -88 -852 294
-1014 88 -37 171 -51 285 -47 124 4 142 8 237 47 187 78 337 250 388 444 5 17
10 37 12 45 3 8 6 65 8 125 6 161 -25 280 -106 405 -81 125 -197 215 -344 266
-105 36 -272 42 -379 14z m337 -130 c182 -69 310 -226 353 -435 15 -69 3 -216
-22 -292 -107 -322 -461 -466 -753 -308 -257 141 -359 481 -226 760 71 147
186 245 341 290 73 21 233 13 307 -15z"/>
<path d="M8054 5736 c-18 -14 -19 -33 -19 -651 0 -619 1 -637 19 -651 27 -19
70 -18 89 4 15 17 17 76 17 643 0 549 -2 627 -16 647 -18 25 -60 29 -90 8z"/>
</g>
</svg>
